<svg xmlns="http://www.w3.org/2000/svg" width="46" height="46" viewBox="0 0 48 48">
  <path fill="#fbc02d" d="M43.6 20.5H42V20H24v8h11.3C33.3 33.2 29.1 36 24 36c-6.6 0-12-5.4-12-12s5.4-12 12-12c3.1 0 5.9 1.2 8 3.1l5.7-5.7C34.5 6.1 29.5 4 24 4 12.9 4 4 12.9 4 24s8.9 20 20 20 20-8.9 20-20c0-1.2-.1-2.3-.4-3.5z"></path>
  <path fill="#e53935" d="M6.3 14.1l6.6 4.8C14.4 15.2 18.9 12 24 12c3.1 0 5.9 1.2 8 3.1l5.7-5.7C34.5 6.1 29.5 4 24 4 15.5 4 8.2 9.3 6.3 14.1z"></path>
  <path fill="#4caf50" d="M24 44c5.1 0 10.1-2 13.7-5.3l-6.3-5.2C29.1 36.8 26.6 38 24 38c-5 0-9.2-3.2-10.7-7.6l-6.5 5C11.8 39.3 17.4 44 24 44z"></path>
  <path fill="#1565c0" d="M43.6 20.5H42V20H24v8h11.3c-1.3 3.4-4.6 6-8.3 6-2.5 0-4.7-1-6.3-2.6l-6.5 5C17.4 39.3 20.7 42 24 42c8.8 0 16-7.2 16-16 0-1.2-.1-2.3-.4-3.5z"></path>
</svg>
